<svg width="21" height="21" viewBox="0 0 21 21" fill="none" xmlns="http://www.w3.org/2000/svg">
<path d="M9.00449 9.93519C8.99512 9.92769 8.98512 9.92082 8.97449 9.91582H9.00449V9.93519ZM0.0263672 0.749565H20.0264V20.7496H0.0263672V0.749565ZM7.70449 14.5464V17.5289H16.6757V14.5464H7.70449ZM4.93074 14.3514C4.04949 14.3702 3.37949 14.9983 3.37949 16.0189C3.37949 17.0383 4.04949 17.7052 4.93074 17.7052C5.79012 17.7052 6.48012 17.0583 6.48012 16.0577V16.0383C6.48012 14.9983 5.79012 14.3514 4.93074 14.3514ZM11.5314 3.79394C8.77637 3.79394 7.49449 5.26582 7.49449 7.22769C7.49449 8.80956 8.36387 9.51769 8.97449 9.91582H7.70449V12.8971C8.54574 12.8589 16.6757 12.8971 16.6757 12.8971V9.91582H11.6657C11.3945 9.91582 11.1314 9.89644 10.9382 9.81769C10.4045 9.60144 9.84699 9.11019 9.84699 8.28769C9.84699 7.20707 10.6682 6.77644 11.8757 6.77644H16.6757V3.79456L11.5314 3.79394Z" fill="black"/>
</svg>
