<svg width="21" height="21" viewBox="0 0 21 21" fill="none" xmlns="http://www.w3.org/2000/svg">
<g clip-path="url(#clip0_2_48)">
<path d="M11.0544 9.31096C11.0616 9.30156 11.0682 9.29154 11.073 9.28091L11.0731 9.31086L11.0544 9.31096ZM19.8551 0.297453L19.9483 20.2692L0.695421 20.3739L0.60218 0.402115L19.8551 0.297453ZM6.60939 8.03693L3.7383 8.05254L3.78012 17.0111L6.65121 16.9955L6.60939 8.03693ZM6.78417 5.26608C6.76202 4.38617 6.15423 3.72041 5.17173 3.72575C4.19043 3.73108 3.55159 4.40363 3.5557 5.28363C3.55971 6.14179 4.18563 6.82743 5.14888 6.82219L5.16753 6.82209C6.16868 6.81665 6.78818 6.12424 6.78417 5.26608ZM16.9781 11.8021C16.9652 9.05102 15.5424 7.77866 13.6538 7.78893C12.131 7.79721 11.4534 8.66906 11.073 9.28091L11.067 8.0127L8.19715 8.0283C8.23778 8.86816 8.23898 16.9869 8.23898 16.9869L11.1089 16.9713L11.0855 11.9684C11.0842 11.6975 11.1017 11.4346 11.1766 11.2414C11.3823 10.7072 11.8526 10.148 12.6443 10.1437C13.6846 10.138 14.103 10.9558 14.1086 12.1616L14.131 16.9548L17.0015 16.9392L16.9781 11.8021Z" fill="black"/>
</g>
<defs>
<clipPath id="clip0_2_48">
<rect width="20" height="20" fill="white" transform="translate(0.650543 0.347702)"/>
</clipPath>
</defs>
</svg>
