<svg width="20" height="20" viewBox="0 0 20 20" fill="none" xmlns="http://www.w3.org/2000/svg">
<g clip-path="url(#clip0_2_66)">
<g filter="url(#filter0_d_2_66)">
<path d="M9.84893 19.4797L19.6647 19.5871V10.1728V0.794392H9.84893H0.0331154L0.0331154 10.1012L0.0331154 19.3723L9.84893 19.4797ZM9.84893 1.86819H18.5321V10.1012V18.3342H9.84893H1.16571L1.16571 10.1012L1.16571 1.86819H9.84893Z" fill="black"/>
<path d="M19.0321 1.86819V1.36819H18.5321H9.84893H1.16571H0.66571V1.86819L0.66571 10.1012L0.66571 18.3342L0.66571 18.8342H1.16571H9.84893H18.5321H19.0321V18.3342V10.1012V1.86819ZM0.533115 18.8777L0.533115 10.1012L0.533115 1.29439H9.84893H19.1647V10.1728V19.0816L9.8544 18.9797L0.533115 18.8777Z" stroke="black"/>
</g>
<path d="M4.33698 16.0433C5.58283 16.5087 6.26239 16.0433 6.26239 14.7547C6.26239 13.3944 5.35632 12.8933 4.37473 13.6808C3.65742 14.2535 3.65742 15.7927 4.33698 16.0433Z" fill="black"/>
<path d="M7.81027 15.9359C7.96128 16.0791 9.84893 16.1865 12.0009 16.1865H15.8894V14.7547V13.287L11.8121 13.3944L7.77251 13.5018L7.65925 14.5757C7.58375 15.1842 7.65925 15.7927 7.81027 15.9359Z" fill="black"/>
<path d="M7.65925 11.891C7.73476 11.9268 9.58466 11.9626 11.8499 11.9984L15.8894 12.07V10.7098V9.3853H13.4732C10.453 9.3853 9.84893 9.1705 9.84893 8.0967C9.84893 6.9512 11.2836 6.4143 13.9263 6.5933L15.8894 6.7006V5.3404V4.016H13.058C10.0755 4.016 8.2633 4.5887 7.81027 5.6268C7.39498 6.7006 7.58375 8.0609 8.22555 8.741C8.79185 9.3495 8.79185 9.3853 8.22555 9.3853C7.73476 9.3853 7.58375 9.7075 7.58375 10.6382C7.58375 11.3183 7.6215 11.891 7.65925 11.891Z" fill="black"/>
</g>
<defs>
<filter id="filter0_d_2_66" x="-3.96688" y="0.794388" width="27.6316" height="26.7927" filterUnits="userSpaceOnUse" color-interpolation-filters="sRGB">
<feFlood flood-opacity="0" result="BackgroundImageFix"/>
<feColorMatrix in="SourceAlpha" type="matrix" values="0 0 0 0 0 0 0 0 0 0 0 0 0 0 0 0 0 0 127 0" result="hardAlpha"/>
<feOffset dy="4"/>
<feGaussianBlur stdDeviation="2"/>
<feComposite in2="hardAlpha" operator="out"/>
<feColorMatrix type="matrix" values="0 0 0 0 0 0 0 0 0 0 0 0 0 0 0 0 0 0 0.25 0"/>
<feBlend mode="normal" in2="BackgroundImageFix" result="effect1_dropShadow_2_66"/>
<feBlend mode="normal" in="SourceGraphic" in2="effect1_dropShadow_2_66" result="shape"/>
</filter>
<clipPath id="clip0_2_66">
<rect width="20" height="20" fill="white" transform="translate(0 20) rotate(-90)"/>
</clipPath>
</defs>
</svg>
