<svg width="20" height="20" viewBox="0 0 20 20" fill="none" xmlns="http://www.w3.org/2000/svg">
<path d="M0.520313 9.84893L0.412926 19.6647H9.82718H19.2056V9.84893V0.0331152H9.89877H0.6277L0.520313 9.84893ZM18.1318 9.84893V18.5321H9.89877H1.66577V9.84893V1.16571H9.89877H18.1318V9.84893Z" fill="black"/>
<path d="M3.95669 4.33698C3.49135 5.58283 3.95669 6.26239 5.24534 6.26239C6.60557 6.26239 7.10671 5.35632 6.31921 4.37473C5.74648 3.65742 4.20726 3.65742 3.95669 4.33698Z" fill="black"/>
<path d="M4.06408 7.81027C3.9209 7.96128 3.81351 9.84893 3.81351 12.0009V15.8894H5.24534H6.71296L6.60557 11.8121L6.49819 7.77251L5.42432 7.65925C4.81579 7.58375 4.20726 7.65925 4.06408 7.81027Z" fill="black"/>
<path d="M8.10899 7.65925C8.07319 7.73476 8.03739 9.58466 8.0016 11.8499L7.93001 15.8894H9.29024H10.6147V13.4732C10.6147 10.453 10.8295 9.84893 11.9033 9.84893C13.0488 9.84893 13.5857 11.2836 13.4067 13.9263L13.2994 15.8894H14.6596H15.984V13.058C15.984 10.0755 15.4113 8.2633 14.3732 7.81027C13.2994 7.39498 11.9391 7.58375 11.259 8.22555C10.6505 8.79185 10.6147 8.79185 10.6147 8.22555C10.6147 7.73476 10.2925 7.58375 9.36183 7.58375C8.68172 7.58375 8.10899 7.6215 8.10899 7.65925Z" fill="black"/>
</svg>
